ply
format ascii 1.0
element vertex 12
property float x
property float y
property float z
property uchar red
property uchar green
property uchar blue
end_header
-0.5474596619606018 0.1610175520181656 10.089860916137695 9 9 75
-1.0758777856826782 2.0956647396087646 19.88465118408203 9 9 75
22.333547592163086 11.497367858886719 41.405174255371094 57 57 57
-14.55760383605957 7.086447715759277 37.68293380737305 22 19 17
-0.17918214201927185 12.774882316589355 36.05813980102539 34 31 27
-32.777992248535156 16.63703727722168 42.286773681640625 79 63 21
-18.916702270507812 6.175966739654541 39.27431106567383 34 31 27
-16.58334732055664 6.410179138183594 37.92158126831055 32 28 25
-30.25395965576172 15.646397590637207 44.935089111328125 79 63 21
25.466938018798828 17.244863510131836 47.79054260253906 21 23 26
-21.05170249938965 16.1345157623291 48.144710540771484 21 19 17
-30.123279571533203 16.708606719970703 47.93733215332031 34 30 27
