ply
format ascii 1.0
element vertex 12
property float x
property float y
property float z
property uchar red
property uchar green
property uchar blue
end_header
-6.0103912353515625 4.456149578094482 14.61632251739502 21 23 27
-10.966176986694336 7.0716233253479 27.167325973510742 21 21 21
-6.968539237976074 6.869147300720215 17.032995223999023 24 26 29
-12.620113372802734 14.26501178741455 31.358779907226562 23 26 29
-10.037076950073242 7.503249168395996 18.444820404052734 78 62 20
-2.0572662353515625 1.5320067405700684 4.5714430809021 79 63 21
-8.897427558898926 5.657522678375244 24.773601531982422 57 57 57
-10.329483032226562 5.370729446411133 29.295734405517578 33 29 26
-8.370932579040527 9.871789932250977 46.059898376464844 32 29 25
29.593507766723633 19.045928955078125 38.47557067871094 34 31 27
-29.457298278808594 20.014955520629883 36.874778747558594 20 18 15
-6.1979875564575195 7.326821327209473 12.826651573181152 21 18 16
