ply
format ascii 1.0
element vertex 15
property float x
property float y
property float z
property uchar red
property uchar green
property uchar blue
end_header
17.167930603027344 -13.11909294128418 35.16754150390625 51 53 54
21.403526306152344 -7.607928276062012 30.09143829345703 20 18 15
3.7948098182678223 -4.537943363189697 13.070847511291504 31 28 24
6.032009124755859 -2.9107959270477295 10.2144136428833 34 31 27
9.826215744018555 -6.047121047973633 17.397920608520508 31 28 24
10.365842819213867 -6.199705123901367 20.424497604370117 33 29 26
3.7286243438720703 -6.749457359313965 19.81096839904785 56 60 59
13.777443885803223 -9.217618942260742 29.769947052001953 34 31 27
6.975311756134033 -3.3252134323120117 9.566308975219727 34 31 27
4.940316677093506 -2.008183717727661 7.703403472900391 54 57 57
7.574892044067383 -3.912644147872925 11.249798774719238 34 30 27
3.7796759605407715 -5.244940757751465 15.38461971282959 54 58 57
3.8675284385681152 -15.047487258911133 41.85054397583008 32 29 25
26.911470413208008 9.262161254882812 45.91140365600586 34 31 27
2.542970657348633 -1.1096986532211304 3.6754512786865234 32 29 25
